<svg id="Warstwa_1" data-name="Warstwa 1" xmlns="http://www.w3.org/2000/svg" viewBox="0 0 513.24 478.94"><defs><style>.cls-1{fill:#fff;}</style></defs><title>Obszar roboczy 77</title><path class="cls-1" d="M507.62,156.13a34.41,34.41,0,0,0-11.53-10.85A34,34,0,0,0,483,141a33.49,33.49,0,0,0-3.9-.22A33,33,0,0,0,475,141,234.35,234.35,0,0,0,464,119.73a240.16,240.16,0,0,0-48.71-59.58q-9-8-18.8-15.06c-6.48-4.67-13.23-9-20.18-13.05l-.22-.13q-10.19-5.88-21-10.77a239.62,239.62,0,0,0-27.64-10.47Q322.14,9,316.67,7.6q-7.29-1.89-14.77-3.33a239,239,0,0,0-37-4.12h0c-2.73-.1-5.48-.15-8.23-.15s-5.24,0-7.85.13a239.52,239.52,0,0,0-37,4.06q-7.61,1.44-15,3.36-5.4,1.38-10.7,3A234.91,234.91,0,0,0,158.38,21a237.78,237.78,0,0,0-21.5,11,240.63,240.63,0,0,0-87.69,87.69A238.29,238.29,0,0,0,23.71,183.6a241.52,241.52,0,0,0-4.07,90.5c-.85.39-1.68.83-2.49,1.29a34.16,34.16,0,0,0,21.54,63.48q4.77,10.44,10.5,20.33a240.74,240.74,0,0,0,49.28,60.09c5.89,5.19,12.06,10.09,18.45,14.69a236.89,236.89,0,0,0,20,12.91l.45.26a238.49,238.49,0,0,0,49.13,21.34q5.1,1.58,10.29,2.9c4.81,1.24,9.67,2.34,14.6,3.27h0a237.74,237.74,0,0,0,37,4.13c2.73.1,5.46.15,8.21.15s5.74-.05,8.6-.16a238.4,238.4,0,0,0,37.1-4.2q7.26-1.4,14.35-3.24,5.26-1.35,10.43-2.95a237.24,237.24,0,0,0,49.25-21.5A239,239,0,0,0,496.09,239.47a241.63,241.63,0,0,0-2.35-33.7c.8-.38,1.58-.79,2.35-1.23a34.18,34.18,0,0,0,11.53-48.41ZM477.91,277.28a224.51,224.51,0,0,1-159.27,178l-2,.55c-.91.26-1.82.5-2.73.74a223.7,223.7,0,0,1-38.66,6.62q-9.22.76-18.66.77-9.23,0-18.26-.73a224.22,224.22,0,0,1-38.6-6.54c-1-.26-2-.53-3-.81l-1.82-.51a222,222,0,0,1-49.46-20.83q-4.35-2.47-8.59-5.16-6-3.81-11.83-8A225.64,225.64,0,0,1,66.72,359.2,221.37,221.37,0,0,1,52.8,333.63a34.17,34.17,0,0,0,10.69-46.1L136.88,173.7v-.36l.12.18,59.1,91.66a1,1,0,0,0,1.72,0L256,175a1,1,0,0,1,1.72,0l27.55,42.73,17.19-26.67-44.74-69.4a1,1,0,0,0-1.72,0l-58.13,90.15a1,1,0,0,1-1.72,0l-58.24-90.32a1,1,0,0,0-1.72,0L39.57,271.3a34.84,34.84,0,0,0-5.24-.43,227,227,0,0,1,1-69.24h0A224,224,0,0,1,85.7,94a225.13,225.13,0,0,1,80.91-60.18,222,222,0,0,1,27.9-10.07l2.24-.63c1.14-.32,2.29-.62,3.44-.91a222.45,222.45,0,0,1,38.55-6.46q8.85-.69,17.88-.7,9.24,0,18.28.74h0a222.15,222.15,0,0,1,38.6,6.54c1.05.27,2.11.55,3.16.84l2.38.68a219.67,219.67,0,0,1,27.87,10.11A215.12,215.12,0,0,1,368,44.55q4.25,2.4,8.37,5,6.16,3.88,12,8.16A221.78,221.78,0,0,1,407.1,72.91a224.87,224.87,0,0,1,39.41,46.82,222,222,0,0,1,14.28,26.34,34.17,34.17,0,0,0-11,46.41L377.42,304.74a1,1,0,0,1-1.72,0l-58.18-90.22a1,1,0,0,0-1.72,0l-58.13,90.15a1,1,0,0,1-1.72,0l-27.83-43.16-17.2,26.67,45.14,69.69a1,1,0,0,0,1.72,0l58-90a1,1,0,0,1,1.72,0l58.31,90a1,1,0,0,0,1.72,0l96.2-149.21a34,34,0,0,0,5.28.41,226.46,226.46,0,0,1-1.13,68.22Z"/></svg>